PathFileType	4	(X/Y/Z)	Kaydara	
DataRate	CameraRate	NumFrames	NumMarkers	Units	OrigDataRate	OrigDataStartFrame	OrigNumFrames	
120.00	120.00	4	72	mm	120.00	235	268	
Frame#	Time	Hips			RightUpLeg			RightLeg			RightFoot			RightFoot_End			LeftUpLeg			LeftLeg			LeftFoot			LeftFoot_End			Spine			Spine1			Spine2			Spine3			Neck			Head			Head_End			RightShoulder			RightArm			RightForeArm			RightHand			RightHandThumb1			RightHandThumb2			RightHandThumb3			RightHandThumb3_End			RightInHandIndex			RightHandIndex1			RightHandIndex2			RightHandIndex3			RightHandIndex3_End			RightInHandMiddle			RightHandMiddle1			RightHandMiddle2			RightHandMiddle3			RightHandMiddle3_End			RightInHandRing			RightHandRing1			RightHandRing2			RightHandRing3			RightHandRing3_End			RightInHandPinky			RightHandPinky1			RightHandPinky2			RightHandPinky3			RightHandPinky3_End			LeftShoulder			LeftArm			LeftForeArm			LeftHand			LeftHandThumb1			LeftHandThumb2			LeftHandThumb3			LeftHandThumb3_End			LeftInHandIndex			LeftHandIndex1			LeftHandIndex2			LeftHandIndex3			LeftHandIndex3_End			LeftInHandMiddle			LeftHandMiddle1			LeftHandMiddle2			LeftHandMiddle3			LeftHandMiddle3_End			LeftInHandRing			LeftHandRing1			LeftHandRing2			LeftHandRing3			LeftHandRing3_End			LeftInHandPinky			LeftHandPinky1			LeftHandPinky2			LeftHandPinky3			LeftHandPinky3_End			
		X1	Y1	Z1	X2	Y2	Z2	X3	Y3	Z3	X4	Y4	Z4	X5	Y5	Z5	X6	Y6	Z6	X7	Y7	Z7	X8	Y8	Z8	X9	Y9	Z9	X10	Y10	Z10	X11	Y11	Z11	X12	Y12	Z12	X13	Y13	Z13	X14	Y14	Z14	X15	Y15	Z15	X16	Y16	Z16	X17	Y17	Z17	X18	Y18	Z18	X19	Y19	Z19	X20	Y20	Z20	X21	Y21	Z21	X22	Y22	Z22	X23	Y23	Z23	X24	Y24	Z24	X25	Y25	Z25	X26	Y26	Z26	X27	Y27	Z27	X28	Y28	Z28	X29	Y29	Z29	X30	Y30	Z30	X31	Y31	Z31	X32	Y32	Z32	X33	Y33	Z33	X34	Y34	Z34	X35	Y35	Z35	X36	Y36	Z36	X37	Y37	Z37	X38	Y38	Z38	X39	Y39	Z39	X40	Y40	Z40	X41	Y41	Z41	X42	Y42	Z42	X43	Y43	Z43	X44	Y44	Z44	X45	Y45	Z45	X46	Y46	Z46	X47	Y47	Z47	X48	Y48	Z48	X49	Y49	Z49	X50	Y50	Z50	X51	Y51	Z51	X52	Y52	Z52	X53	Y53	Z53	X54	Y54	Z54	X55	Y55	Z55	X56	Y56	Z56	X57	Y57	Z57	X58	Y58	Z58	X59	Y59	Z59	X60	Y60	Z60	X61	Y61	Z61	X62	Y62	Z62	X63	Y63	Z63	X64	Y64	Z64	X65	Y65	Z65	X66	Y66	Z66	X67	Y67	Z67	X68	Y68	Z68	X69	Y69	Z69	X70	Y70	Z70	X71	Y71	Z71	X72	Y72	Z72	

235	1.95	446.8050000000003	859.65103	-201.189	396.26742000000013	809.5197199999999	-261.68322	410.60247999999956	392.98867	-301.53445999999997	511.7272300000004	113.89185	-602.8844000000001	606.1119400000007	-31.292049999999996	-521.9413999999999	500.70895999999993	880.86875	-126.18524	366.25108999999975	496.14186	-30.24252	259.6553700000004	97.67109	58.4044	323.4003300000004	6.779359999999997	214.01250999999996	435.0793599999997	989.0647899999999	-260.8337900000001	393.9713499999998	1070.2461100000003	-294.7676000000001	345.0084000000006	1152.56434	-327.23878999999994	288.75076999999874	1227.3660399999999	-353.57025999999996	227.36529000000155	1307.2453299999997	-374.9183300000001	179.8485700000001	1382.62045	-340.17207	176.3133799999996	1494.8121399999998	-226.85492	223.24227000000064	1261.7273200000004	-372.99061	125.80833999999959	1181.1861100000003	-355.5293899999999	106.23938999999973	1136.9113500000003	-94.45988000000006	-73.51919999999973	1083.37205	85.65796	-94.2179900000001	1107.4034	109.96796000000006	-94.06627000000026	1115.90938	145.79926999999998	-93.5335500000001	1117.4259600000003	171.33192000000003	-92.72409000000061	1114.9202199999997	193.11332000000004	-96.94840999999997	1094.2580800000003	113.74784999999997	-120.93956000000071	1092.61015	161.1178500000001	-125.01695999999902	1089.07202	196.90667999999994	-119.11204999999973	1089.2774999999997	216.5586800000001	-108.53161999999975	1091.0699199999997	231.07227	-94.35206999999991	1082.2154899999998	113.81007999999997	-116.35156000000006	1074.0949899999998	160.0462100000001	-120.36465000000044	1068.64755	198.95703000000003	-113.0312699999995	1068.1340800000003	222.59834	-101.35259999999926	1069.72518	238.4457299999999	-92.0356499999989	1073.7446000000002	112.62977999999998	-110.12140999999974	1059.0994599999997	152.99677999999994	-113.13733000000047	1052.7426000000003	186.69385	-105.80775999999969	1051.39293	209.3821200000001	-94.70557000000008	1052.4841000000001	224.22785	-87.64586999999938	1064.06742	110.01883999999995	-101.97206000000006	1044.65223	145.39700000000005	-103.55542999999943	1037.1158	171.8647400000001	-97.80689999999959	1034.94809	188.1642300000001	-87.74063999999998	1035.23371	201.17159000000004	273.4729699999989	1300.8141199999998	-366.35196	377.2771899999989	1372.2421300000003	-342.79106000000013	321.7002400000001	1208.04708	-142.63340000000002	107.01087000000007	1068.12034	-105.51542999999998	116.27862000000096	1085.65659	-70.82378999999997	115.02287999999862	1076.7975399999998	-35.099879999999985	115.82348000000093	1066.72393	-11.597080000000005	117.92392000000109	1054.9860999999999	6.819629999999961	124.98354000000018	1074.8941000000002	-72.53703999999999	150.65216000000055	1063.7316499999997	-27.384739999999965	158.63410999999905	1047.28935	3.8550199999999677	154.8165200000003	1036.35226	20.79367000000002	145.73436000000038	1026.81741	33.138840000000016	128.17649000000074	1064.2516300000002	-77.85792999999995	154.94277000000056	1047.61008	-36.69575000000003	163.97836000000007	1028.2893800000002	-3.4557100000000105	159.5288499999997	1014.43251	16.572829999999954	149.66728000000057	1003.67798	29.882679999999993	129.89367000000038	1057.0779099999997	-82.7675099999999	155.71275999999943	1036.1129799999999	-50.13447000000008	163.87764999999945	1017.88919	-22.09474	159.73943000000054	1003.78827	-3.2707899999999768	150.53988000000027	993.32806	9.009159999999952	130.21229999999923	1048.6578900000002	-89.74867	154.48868999999922	1024.43693	-64.10094999999995	161.36490999999933	1007.7761	-43.24477000000002	158.5100199999997	996.49051	-30.287019999999984	150.45483000000058	986.64878	-19.853579999999965
236	1.958	446.8050000000003	859.65103	-201.189	394.4585900000002	809.6694100000002	-260.252	412.4850900000001	393.4722300000001	-302.0452599999999	510.08154000000104	116.40713	-606.41823	605.74431	-29.688759999999995	-528.67998	502.58754000000044	880.7648499999998	-127.54180999999998	367.7548200000001	496.5992599999999	-29.89121	260.1138599999995	98.64913999999999	59.82503999999998	323.7365200000004	7.028320000000001	215.05516	434.8865800000003	988.8567800000002	-261.24512999999996	393.9042300000001	1070.2100399999997	-294.91813	345.1401399999995	1152.7879199999998	-327.0273000000001	289.1665099999991	1227.9760500000002	-352.85869	228.20530000000144	1308.3258099999998	-373.6496	181.34689999999955	1384.52984	-339.8296900000001	178.61112000000048	1497.5296700000001	-227.29613	223.59158000000025	1262.88954	-371.02973	125.50193000000036	1184.0475500000002	-349.87526	112.54208999999992	1147.72668	-87.17138999999997	-66.10941000000003	1103.64885	96.57525999999996	-85.28336000000036	1129.01581	120.77854000000002	-84.14806000000044	1138.11534	156.44598000000008	-83.12227999999959	1140.0408400000001	181.93599000000012	-82.06596000000081	1137.8721899999998	203.74298	-88.54736999999932	1116.0760100000002	124.8343900000001	-111.79784000000018	1116.3386700000003	172.60001	-115.43682000000081	1113.6019200000003	208.50617	-109.20276999999987	1113.8710700000001	228.05548	-98.3117599999996	1115.4230699999998	242.3656099999999	-86.50243000000046	1103.92975	125.06970999999999	-108.07768999999917	1097.61686	171.78540000000004	-111.68764000000101	1093.0233600000001	210.84559999999993	-103.99327000000085	1092.5768499999997	234.37325999999996	-91.99232000000029	1093.90008	250.00300000000004	-84.5947900000001	1095.34258	124.00375999999994	-102.6561700000002	1082.23319	164.9060800000001	-105.39828000000034	1076.59672	198.75440000000003	-97.76171000000068	1075.29895	221.34424000000007	-86.3760199999997	1076.13224	235.99062000000004	-80.69504999999936	1085.4310100000002	121.49621000000002	-95.30184000000008	1067.2996800000003	157.43643999999995	-96.78709000000072	1060.2960999999998	184.05579	-90.8732399999999	1058.14494	200.29823	-80.58956000000035	1058.18987	213.13748999999996	274.4392399999997	1301.43898	-366.18938	379.4498999999996	1372.3143799999998	-346.6488299999999	327.3839700000008	1214.5695799999999	-140.45081999999996	107.77048000000013	1084.28777	-97.49355000000003	117.31174999999985	1103.47812	-63.76498000000004	117.16525999999976	1096.0377	-27.69731999999999	118.82371000000057	1086.95071	-3.8399	121.71232000000055	1076.03423	14.971000000000004	126.29773000000023	1092.9164900000003	-65.26372999999995	153.34715999999935	1084.35068	-20.350880000000018	162.5571800000007	1069.4275599999999	11.31076999999999	159.47306000000026	1059.07656	28.759450000000015	150.97773999999936	1049.7850700000001	41.69389999999993	129.6874799999987	1082.1663500000002	-70.23491999999999	157.9069300000001	1067.9993000000002	-29.117309999999975	168.30441999999948	1050.3133399999997	4.630729999999971	164.75028999999995	1037.1525299999998	25.29749000000004	155.53591999999935	1026.6589300000003	39.263229999999965	131.50658999999905	1074.85372	-74.89660000000003	158.71098999999958	1055.9959	-42.10372999999993	168.08294000000024	1039.16952	-13.572389999999984	164.8190199999999	1025.7254299999997	5.893100000000004	156.23305000000073	1015.5036399999998	18.802059999999983	131.91749999999956	1066.1713499999998	-81.54359	157.51551000000018	1043.73362	-55.561019999999985	165.3835399999998	1028.1397700000002	-34.23563999999999	163.17856999999913	1017.3081200000001	-20.773410000000013	155.67394000000058	1007.6631099999997	-9.761750000000006
237	1.967	446.8050000000003	859.65103	-201.189	392.79857000000084	809.7708	-258.82592000000005	414.02895999999964	393.9330499999999	-302.64338	508.3842999999997	118.69630000000001	-609.6854600000001	605.1901600000001	-28.193080000000002	-534.91417	504.3211700000011	880.71974	-128.87445999999997	369.3314199999986	497.0779800000001	-29.39847	260.78171999999904	99.60046000000003	61.31239999999998	324.4214300000003	7.311119999999999	216.13899999999995	434.66779000000133	988.60594	-261.7384300000001	393.78276000000005	1070.08117	-295.2343799999999	345.1844000000001	1152.86162	-327.07203000000004	289.45953999999983	1228.3730800000003	-352.4949	228.8788199999999	1309.1262900000002	-372.82989000000003	182.64107999999942	1386.10307	-339.91796999999997	180.68568999999934	1499.9543000000003	-228.22946	223.8425499999994	1263.7797	-369.52404	125.24959999999919	1186.59832	-344.8742	118.4070499999998	1157.5825000000004	-81.03382000000005	-58.52041999999983	1122.11146	106.21073000000001	-76.30085999999937	1148.6179100000002	130.25621	-74.26798999999937	1158.24261	165.74551000000002	-72.7837099999997	1160.5391100000002	191.18215000000004	-71.48765999999978	1158.68426	213.00516000000005	-80.01766999999927	1135.88725	134.57568000000015	-102.51962999999978	1137.85943	182.65874000000002	-105.72568000000047	1135.85463	218.65437999999995	-99.1931599999998	1136.19063	238.10494999999992	-88.0353299999997	1137.5361199999998	252.22921999999994	-78.45601000000079	1123.67408	134.98604	-99.5625799999998	1118.9925399999997	182.10604999999998	-102.76642999999967	1115.1827800000003	221.2858	-94.74377999999979	1114.8097600000003	244.70484	-82.4663499999997	1115.90355	260.13633	-76.90895999999975	1115.00103	134.03750000000002	-94.86344999999983	1103.2938	175.40954999999997	-97.32011000000057	1098.32255	209.38379999999995	-89.40328000000045	1097.08615	231.8803999999999	-77.77487000000019	1097.6991999999998	246.3458500000001	-73.44613000000027	1104.90139	131.64144	-88.22415000000001	1087.9575799999998	168.08758	-89.58817999999974	1081.4525900000003	194.83959000000004	-83.52183000000059	1079.32972	211.02942999999993	-73.05303000000094	1079.17005	223.7172700000001	275.2031700000007	1301.8228900000001	-366.3975200000001	381.2442599999995	1372.1139799999999	-350.68626000000006	331.9274600000008	1218.8393600000002	-140.48007	101.80058999999983	1115.8886599999996	-81.39085	111.56592999999975	1136.60564	-48.64384000000001	112.43314999999984	1130.55313	-12.327560000000005	114.87536999999975	1122.43538	11.810330000000022	118.48395000000073	1112.3292299999996	30.94688000000002	120.80256000000008	1126.23684	-49.95337000000001	149.07797000000028	1120.12229	-5.396430000000009	159.4023500000003	1106.6748699999998	26.581039999999973	156.9958800000004	1096.9225899999997	44.47553999999997	149.05119999999988	1087.91166	57.94727999999998	124.37372999999934	1115.3977800000002	-54.59346000000005	153.88703000000078	1103.5736	-13.644049999999993	165.5207900000005	1087.4779599999997	20.494160000000022	162.79393999999957	1075.02989	41.72064	154.18681000000106	1064.83861	56.284899999999936	126.28781999999956	1107.9626300000004	-59.01722000000001	154.72866000000067	1091.10643	-26.183449999999993	165.1968799999995	1075.6420399999997	2.734829999999988	162.7408800000003	1062.87263	22.765109999999993	154.73057999999946	1052.9290300000002	36.24862000000002	126.78765999999905	1099.0456399999998	-65.33957999999996	153.56857000000036	1078.30947	-39.13656000000003	162.33826000000045	1063.75985	-17.428350000000023	160.73412000000098	1053.39786	-3.518850000000043	153.74607000000015	1043.9863600000003	8.022089999999992
238	1.975	446.8050000000003	859.65103	-201.189	391.22065999999904	809.90948	-257.42871000000014	415.0130500000014	394.43907	-303.36337000000003	506.45853999999963	120.78787999999997	-612.69456	604.2845500000003	-26.81525	-540.7084600000001	505.97199	880.6305700000001	-130.19239	370.94986999999855	497.4983300000001	-28.814789999999995	261.5220799999988	100.46738	62.79231000000001	325.5766000000003	7.697939999999999	217.16023999999996	434.44708999999966	988.3822599999997	-262.16823000000005	393.67199000000073	1069.9859900000001	-295.48490000000004	345.2528199999997	1152.97235	-327.05842000000007	289.7892800000009	1228.8045300000003	-352.0951800000001	229.59760000000097	1309.9546000000003	-372.00106999999997	183.9760900000001	1387.66881	-339.97407999999996	182.82859999999982	1502.36123	-229.13825	224.16905000000042	1264.70571	-368.04199000000006	125.20621999999912	1189.1345800000001	-340.10433	124.01535999999942	1166.56032	-75.54909999999995	-50.797819999999774	1139.42013	115.04419999999999	-67.1799800000008	1166.9674100000002	138.9124500000001	-64.24298999999883	1177.05894	174.20822999999996	-62.287859999999455	1179.693	199.5802500000001	-60.735099999999875	1178.1302	221.40937000000002	-71.31852000000072	1154.45923	143.49066000000005	-92.9999600000001	1158.0516999999998	191.85612000000003	-95.73743999999988	1156.73468	227.92210999999998	-88.90415999999914	1157.12099	247.26812000000007	-77.49099999999908	1158.25363	261.2058299999999	-70.2221299999992	1142.20263	144.07592999999997	-90.78004999999939	1139.07811	191.56603000000007	-93.5367699999988	1136.00732	230.84454999999997	-85.18207000000075	1135.6894599999998	254.1480200000001	-72.64024000000063	1136.54767	269.3805	-69.02457999999933	1133.46242	143.24556999999993	-86.79026999999951	1123.1065499999997	185.05711000000002	-88.92367999999988	1118.76509	219.13934000000006	-80.721849999999	1117.5742999999998	241.53608000000008	-68.86155999999937	1117.9622399999998	255.8199199999999	-65.98963999999978	1123.20009	140.96335999999997	-80.85746000000108	1107.4122799999998	177.88892000000004	-82.06716000000051	1101.38337	204.75961999999993	-75.8434900000002	1099.2801000000002	220.89220999999998	-65.19837999999982	1098.9131700000003	233.4281400000001	275.9792400000006	1302.23472	-366.54139	382.89658000000054	1371.90644	-354.42007000000007	337.37572999999975	1224.3561900000002	-139.31851	104.73335000000043	1130.3010999999997	-75.44423999999998	114.64991000000009	1152.4675199999997	-43.70731000000001	116.36711000000014	1147.8259500000001	-7.213959999999986	119.4690099999998	1140.6921499999999	17.157899999999984	123.68549999999959	1131.40747	36.584149999999966	124.09876000000077	1142.2676100000003	-44.81324000000001	153.37381000000005	1138.49752	-0.6434899999999857	164.63170999999966	1126.5164100000002	31.600829999999974	162.8034200000002	1117.40199	49.89554000000004	155.33583	1108.73439	63.85656000000006	127.83071999999993	1131.3428700000002	-49.11338000000001	158.4059299999999	1121.7591	-8.357919999999979	171.07663000000048	1107.24438	26.11826999999994	169.0561000000007	1095.55669	47.85002000000003	160.97526000000016	1085.7366100000002	62.960560000000044	129.83113000000048	1123.7895000000003	-53.29189999999994	159.2934099999993	1108.8448500000002	-20.433089999999993	170.68242999999984	1094.7353000000003	8.827949999999987	168.91677999999956	1082.68708	29.371190000000013	161.40560000000005	1073.0866900000003	43.38045999999997	130.41545999999926	1114.6513800000002	-59.282569999999964	158.17968999999994	1095.54014	-32.86833999999999	167.70884999999998	1082.0310300000003	-10.810569999999984	166.6189400000003	1072.17362	3.509399999999971	160.07919000000038	1063.05379	15.536979999999971
